<mxfile host="65bd71144e">
    <diagram id="fb0kV5kFJR68Zrz59rkl" name="Page-1">
        <mxGraphModel dx="1495" dy="1097" grid="1" gridSize="10" guides="1" tooltips="1" connect="1" arrows="1" fold="1" page="1" pageScale="1" pageWidth="1169" pageHeight="827" math="0" shadow="0">
            <root>
                <mxCell id="0"/>
                <mxCell id="1" parent="0"/>
                <mxCell id="ulh72_kuZYFGFxjBWWFi-1" value="" style="edgeStyle=orthogonalEdgeStyle;rounded=0;orthogonalLoop=1;jettySize=auto;html=1;" edge="1" parent="1" target="ifcn5dZgHCq0odgI6ynC-1">
                    <mxGeometry relative="1" as="geometry">
                        <mxPoint x="135" y="130" as="sourcePoint"/>
                    </mxGeometry>
                </mxCell>
                <mxCell id="E7ceuJRYJGRXgiJM_G_b-1" value="User" style="shape=umlActor;verticalLabelPosition=bottom;verticalAlign=top;html=1;outlineConnect=0;" parent="1" vertex="1">
                    <mxGeometry x="120" y="50" width="30" height="60" as="geometry"/>
                </mxCell>
                <mxCell id="ifcn5dZgHCq0odgI6ynC-1" value="" style="rounded=0;whiteSpace=wrap;html=1;" parent="1" vertex="1">
                    <mxGeometry x="125" y="150" width="20" height="940" as="geometry"/>
                </mxCell>
                <mxCell id="ifcn5dZgHCq0odgI6ynC-2" value="Time" style="text;html=1;strokeColor=none;fillColor=none;align=center;verticalAlign=middle;whiteSpace=wrap;rounded=0;rotation=-90;" parent="1" vertex="1">
                    <mxGeometry x="90" y="340" width="40" height="40" as="geometry"/>
                </mxCell>
                <mxCell id="rmQM6Vja0yTJw_-H1t-c-1" style="edgeStyle=orthogonalEdgeStyle;rounded=0;orthogonalLoop=1;jettySize=auto;html=1;exitX=0.5;exitY=0;exitDx=0;exitDy=0;entryX=0.5;entryY=1;entryDx=0;entryDy=0;dashed=1;endArrow=none;endFill=0;" edge="1" parent="1" source="ifcn5dZgHCq0odgI6ynC-3" target="ifcn5dZgHCq0odgI6ynC-13">
                    <mxGeometry relative="1" as="geometry"/>
                </mxCell>
                <mxCell id="rmQM6Vja0yTJw_-H1t-c-7" style="edgeStyle=orthogonalEdgeStyle;rounded=0;orthogonalLoop=1;jettySize=auto;html=1;exitX=0.5;exitY=1;exitDx=0;exitDy=0;entryX=0.5;entryY=0;entryDx=0;entryDy=0;dashed=1;endArrow=none;endFill=0;" edge="1" parent="1" source="ifcn5dZgHCq0odgI6ynC-3" target="rmQM6Vja0yTJw_-H1t-c-5">
                    <mxGeometry relative="1" as="geometry"/>
                </mxCell>
                <mxCell id="ifcn5dZgHCq0odgI6ynC-3" value="" style="rounded=0;whiteSpace=wrap;html=1;" parent="1" vertex="1">
                    <mxGeometry x="330" y="330" width="20" height="60" as="geometry"/>
                </mxCell>
                <mxCell id="ifcn5dZgHCq0odgI6ynC-4" value="" style="endArrow=classic;html=1;rounded=0;exitX=-0.002;exitY=0.972;exitDx=0;exitDy=0;exitPerimeter=0;dashed=1;entryX=1;entryY=0.25;entryDx=0;entryDy=0;" parent="1" source="ifcn5dZgHCq0odgI6ynC-3" target="ifcn5dZgHCq0odgI6ynC-1" edge="1">
                    <mxGeometry width="50" height="50" relative="1" as="geometry">
                        <mxPoint x="560" y="350" as="sourcePoint"/>
                        <mxPoint x="150" y="325" as="targetPoint"/>
                    </mxGeometry>
                </mxCell>
                <mxCell id="ifcn5dZgHCq0odgI6ynC-5" value="" style="endArrow=classic;html=1;rounded=0;entryX=0.036;entryY=0.03;entryDx=0;entryDy=0;entryPerimeter=0;" parent="1" target="ifcn5dZgHCq0odgI6ynC-3" edge="1">
                    <mxGeometry width="50" height="50" relative="1" as="geometry">
                        <mxPoint x="150" y="330" as="sourcePoint"/>
                        <mxPoint x="310" y="150" as="targetPoint"/>
                    </mxGeometry>
                </mxCell>
                <mxCell id="ifcn5dZgHCq0odgI6ynC-12" value="renderDetails()" style="edgeLabel;html=1;align=center;verticalAlign=middle;resizable=0;points=[];" parent="ifcn5dZgHCq0odgI6ynC-5" vertex="1" connectable="0">
                    <mxGeometry x="-0.1101" relative="1" as="geometry">
                        <mxPoint as="offset"/>
                    </mxGeometry>
                </mxCell>
                <mxCell id="ifcn5dZgHCq0odgI6ynC-6" value="" style="curved=1;endArrow=classic;html=1;rounded=0;exitX=1.124;exitY=0.079;exitDx=0;exitDy=0;exitPerimeter=0;" parent="1" edge="1">
                    <mxGeometry width="50" height="50" relative="1" as="geometry">
                        <mxPoint x="145.4799999999999" y="165.55" as="sourcePoint"/>
                        <mxPoint x="145" y="220" as="targetPoint"/>
                        <Array as="points">
                            <mxPoint x="188" y="170"/>
                            <mxPoint x="188" y="220"/>
                        </Array>
                    </mxGeometry>
                </mxCell>
                <mxCell id="ifcn5dZgHCq0odgI6ynC-11" value="renderDetails()" style="edgeLabel;html=1;align=center;verticalAlign=middle;resizable=0;points=[];" parent="ifcn5dZgHCq0odgI6ynC-6" vertex="1" connectable="0">
                    <mxGeometry x="0.1396" y="-3" relative="1" as="geometry">
                        <mxPoint x="13" y="-10" as="offset"/>
                    </mxGeometry>
                </mxCell>
                <mxCell id="ifcn5dZgHCq0odgI6ynC-13" value="Account:1" style="rounded=1;whiteSpace=wrap;html=1;" parent="1" vertex="1">
                    <mxGeometry x="307.5" y="100" width="65" height="30" as="geometry"/>
                </mxCell>
                <mxCell id="rmQM6Vja0yTJw_-H1t-c-11" style="edgeStyle=orthogonalEdgeStyle;rounded=0;orthogonalLoop=1;jettySize=auto;html=1;exitX=0.5;exitY=0;exitDx=0;exitDy=0;entryX=0.5;entryY=1;entryDx=0;entryDy=0;dashed=1;endArrow=none;endFill=0;" edge="1" parent="1" source="ifcn5dZgHCq0odgI6ynC-20" target="ifcn5dZgHCq0odgI6ynC-23">
                    <mxGeometry relative="1" as="geometry"/>
                </mxCell>
                <mxCell id="rmQM6Vja0yTJw_-H1t-c-20" style="edgeStyle=orthogonalEdgeStyle;rounded=0;orthogonalLoop=1;jettySize=auto;html=1;exitX=0.5;exitY=1;exitDx=0;exitDy=0;entryX=0.5;entryY=0;entryDx=0;entryDy=0;dashed=1;endArrow=none;endFill=0;" edge="1" parent="1" source="ifcn5dZgHCq0odgI6ynC-20" target="rmQM6Vja0yTJw_-H1t-c-19">
                    <mxGeometry relative="1" as="geometry"/>
                </mxCell>
                <mxCell id="ifcn5dZgHCq0odgI6ynC-20" value="" style="rounded=0;whiteSpace=wrap;html=1;" parent="1" vertex="1">
                    <mxGeometry x="534.76" y="550" width="20" height="60" as="geometry"/>
                </mxCell>
                <mxCell id="ifcn5dZgHCq0odgI6ynC-23" value="Service:8" style="rounded=1;whiteSpace=wrap;html=1;" parent="1" vertex="1">
                    <mxGeometry x="512.26" y="100" width="65" height="30" as="geometry"/>
                </mxCell>
                <mxCell id="ifcn5dZgHCq0odgI6ynC-26" value="" style="endArrow=classic;html=1;rounded=0;exitX=0;exitY=1;exitDx=0;exitDy=0;dashed=1;entryX=1.148;entryY=0.49;entryDx=0;entryDy=0;entryPerimeter=0;" parent="1" edge="1" target="ifcn5dZgHCq0odgI6ynC-1" source="ifcn5dZgHCq0odgI6ynC-20">
                    <mxGeometry width="50" height="50" relative="1" as="geometry">
                        <mxPoint x="474.96000000000004" y="600.1600000000001" as="sourcePoint"/>
                        <mxPoint x="290" y="600" as="targetPoint"/>
                    </mxGeometry>
                </mxCell>
                <mxCell id="ifcn5dZgHCq0odgI6ynC-27" value="" style="rounded=0;whiteSpace=wrap;html=1;" parent="1" vertex="1">
                    <mxGeometry x="680" y="910" width="20" height="60" as="geometry"/>
                </mxCell>
                <mxCell id="ifcn5dZgHCq0odgI6ynC-28" value="" style="endArrow=classic;html=1;rounded=0;exitX=1.079;exitY=0.682;exitDx=0;exitDy=0;exitPerimeter=0;entryX=0;entryY=0;entryDx=0;entryDy=0;" parent="1" target="rmQM6Vja0yTJw_-H1t-c-16" edge="1" source="ifcn5dZgHCq0odgI6ynC-1">
                    <mxGeometry width="50" height="50" relative="1" as="geometry">
                        <mxPoint x="350" y="409.6" as="sourcePoint"/>
                        <mxPoint x="530" y="410" as="targetPoint"/>
                    </mxGeometry>
                </mxCell>
                <mxCell id="ifcn5dZgHCq0odgI6ynC-29" value="getCreditCards()" style="edgeLabel;html=1;align=center;verticalAlign=middle;resizable=0;points=[];" parent="ifcn5dZgHCq0odgI6ynC-28" vertex="1" connectable="0">
                    <mxGeometry x="-0.1101" relative="1" as="geometry">
                        <mxPoint as="offset"/>
                    </mxGeometry>
                </mxCell>
                <mxCell id="ifcn5dZgHCq0odgI6ynC-32" value="" style="endArrow=classic;html=1;rounded=0;exitX=-0.005;exitY=0.842;exitDx=0;exitDy=0;dashed=1;entryX=1.045;entryY=0.87;entryDx=0;entryDy=0;entryPerimeter=0;exitPerimeter=0;" parent="1" source="ifcn5dZgHCq0odgI6ynC-27" edge="1" target="ifcn5dZgHCq0odgI6ynC-1">
                    <mxGeometry width="50" height="50" relative="1" as="geometry">
                        <mxPoint x="534.96" y="450.1600000000001" as="sourcePoint"/>
                        <mxPoint x="350" y="450" as="targetPoint"/>
                    </mxGeometry>
                </mxCell>
                <mxCell id="rmQM6Vja0yTJw_-H1t-c-24" style="edgeStyle=orthogonalEdgeStyle;rounded=0;orthogonalLoop=1;jettySize=auto;html=1;exitX=0.5;exitY=1;exitDx=0;exitDy=0;entryX=0.5;entryY=0;entryDx=0;entryDy=0;dashed=1;endArrow=none;endFill=0;" edge="1" parent="1" source="ifcn5dZgHCq0odgI6ynC-35" target="ifcn5dZgHCq0odgI6ynC-27">
                    <mxGeometry relative="1" as="geometry"/>
                </mxCell>
                <mxCell id="ifcn5dZgHCq0odgI6ynC-35" value="CreditCard:5" style="rounded=1;whiteSpace=wrap;html=1;" parent="1" vertex="1">
                    <mxGeometry x="648.75" y="100" width="82.5" height="30" as="geometry"/>
                </mxCell>
                <mxCell id="rmQM6Vja0yTJw_-H1t-c-2" value="" style="curved=1;endArrow=classic;html=1;rounded=0;exitX=1.124;exitY=0.079;exitDx=0;exitDy=0;exitPerimeter=0;" edge="1" parent="1">
                    <mxGeometry width="50" height="50" relative="1" as="geometry">
                        <mxPoint x="145.48000000000002" y="239.99999999999983" as="sourcePoint"/>
                        <mxPoint x="145" y="294.45" as="targetPoint"/>
                        <Array as="points">
                            <mxPoint x="188" y="244.45"/>
                            <mxPoint x="188" y="294.45"/>
                        </Array>
                    </mxGeometry>
                </mxCell>
                <mxCell id="rmQM6Vja0yTJw_-H1t-c-3" value="getAccounts()" style="edgeLabel;html=1;align=center;verticalAlign=middle;resizable=0;points=[];" connectable="0" vertex="1" parent="rmQM6Vja0yTJw_-H1t-c-2">
                    <mxGeometry x="0.1396" y="-3" relative="1" as="geometry">
                        <mxPoint x="13" y="-10" as="offset"/>
                    </mxGeometry>
                </mxCell>
                <mxCell id="rmQM6Vja0yTJw_-H1t-c-17" style="edgeStyle=orthogonalEdgeStyle;rounded=0;orthogonalLoop=1;jettySize=auto;html=1;exitX=0.5;exitY=1;exitDx=0;exitDy=0;entryX=0.5;entryY=0;entryDx=0;entryDy=0;dashed=1;endArrow=none;endFill=0;" edge="1" parent="1" source="rmQM6Vja0yTJw_-H1t-c-5" target="rmQM6Vja0yTJw_-H1t-c-16">
                    <mxGeometry relative="1" as="geometry"/>
                </mxCell>
                <mxCell id="rmQM6Vja0yTJw_-H1t-c-5" value="" style="rounded=0;whiteSpace=wrap;html=1;" vertex="1" parent="1">
                    <mxGeometry x="330" y="430" width="20" height="60" as="geometry"/>
                </mxCell>
                <mxCell id="rmQM6Vja0yTJw_-H1t-c-8" value="" style="endArrow=classic;html=1;rounded=0;entryX=0;entryY=0;entryDx=0;entryDy=0;" edge="1" parent="1" target="rmQM6Vja0yTJw_-H1t-c-5">
                    <mxGeometry width="50" height="50" relative="1" as="geometry">
                        <mxPoint x="150" y="430" as="sourcePoint"/>
                        <mxPoint x="399.05999999999995" y="439.9999999999999" as="targetPoint"/>
                    </mxGeometry>
                </mxCell>
                <mxCell id="rmQM6Vja0yTJw_-H1t-c-9" value="getActiveServices()" style="edgeLabel;html=1;align=center;verticalAlign=middle;resizable=0;points=[];" connectable="0" vertex="1" parent="rmQM6Vja0yTJw_-H1t-c-8">
                    <mxGeometry x="-0.1101" relative="1" as="geometry">
                        <mxPoint as="offset"/>
                    </mxGeometry>
                </mxCell>
                <mxCell id="rmQM6Vja0yTJw_-H1t-c-10" value="" style="endArrow=classic;html=1;rounded=0;exitX=0;exitY=1;exitDx=0;exitDy=0;dashed=1;entryX=1.045;entryY=0.365;entryDx=0;entryDy=0;entryPerimeter=0;" edge="1" parent="1" source="rmQM6Vja0yTJw_-H1t-c-5" target="ifcn5dZgHCq0odgI6ynC-1">
                    <mxGeometry width="50" height="50" relative="1" as="geometry">
                        <mxPoint x="324.96000000000004" y="523.32" as="sourcePoint"/>
                        <mxPoint x="140" y="520.0000000000002" as="targetPoint"/>
                    </mxGeometry>
                </mxCell>
                <mxCell id="rmQM6Vja0yTJw_-H1t-c-12" value="" style="endArrow=classic;html=1;rounded=0;exitX=1.079;exitY=0.429;exitDx=0;exitDy=0;exitPerimeter=0;entryX=0;entryY=0;entryDx=0;entryDy=0;" edge="1" parent="1" source="ifcn5dZgHCq0odgI6ynC-1" target="ifcn5dZgHCq0odgI6ynC-20">
                    <mxGeometry width="50" height="50" relative="1" as="geometry">
                        <mxPoint x="172.96" y="560.24" as="sourcePoint"/>
                        <mxPoint x="577.26" y="559.9999999999999" as="targetPoint"/>
                    </mxGeometry>
                </mxCell>
                <mxCell id="rmQM6Vja0yTJw_-H1t-c-13" value="renderDetails()" style="edgeLabel;html=1;align=center;verticalAlign=middle;resizable=0;points=[];" connectable="0" vertex="1" parent="rmQM6Vja0yTJw_-H1t-c-12">
                    <mxGeometry x="-0.1101" relative="1" as="geometry">
                        <mxPoint as="offset"/>
                    </mxGeometry>
                </mxCell>
                <mxCell id="rmQM6Vja0yTJw_-H1t-c-16" value="" style="rounded=0;whiteSpace=wrap;html=1;" vertex="1" parent="1">
                    <mxGeometry x="330" y="790" width="20" height="60" as="geometry"/>
                </mxCell>
                <mxCell id="rmQM6Vja0yTJw_-H1t-c-18" value="" style="endArrow=classic;html=1;rounded=0;exitX=0;exitY=1;exitDx=0;exitDy=0;dashed=1;entryX=1;entryY=0.75;entryDx=0;entryDy=0;" edge="1" parent="1" source="rmQM6Vja0yTJw_-H1t-c-16" target="ifcn5dZgHCq0odgI6ynC-1">
                    <mxGeometry width="50" height="50" relative="1" as="geometry">
                        <mxPoint x="340" y="500" as="sourcePoint"/>
                        <mxPoint x="155.9000000000001" y="503.10000000000014" as="targetPoint"/>
                    </mxGeometry>
                </mxCell>
                <mxCell id="rmQM6Vja0yTJw_-H1t-c-19" value="" style="rounded=0;whiteSpace=wrap;html=1;" vertex="1" parent="1">
                    <mxGeometry x="534.76" y="660" width="20" height="60" as="geometry"/>
                </mxCell>
                <mxCell id="rmQM6Vja0yTJw_-H1t-c-21" value="" style="endArrow=classic;html=1;rounded=0;exitX=1.079;exitY=0.429;exitDx=0;exitDy=0;exitPerimeter=0;entryX=0;entryY=0;entryDx=0;entryDy=0;" edge="1" parent="1">
                    <mxGeometry width="50" height="50" relative="1" as="geometry">
                        <mxPoint x="146.57999999999993" y="663.26" as="sourcePoint"/>
                        <mxPoint x="534.76" y="660" as="targetPoint"/>
                    </mxGeometry>
                </mxCell>
                <mxCell id="rmQM6Vja0yTJw_-H1t-c-22" value="setServiceState()" style="edgeLabel;html=1;align=center;verticalAlign=middle;resizable=0;points=[];" connectable="0" vertex="1" parent="rmQM6Vja0yTJw_-H1t-c-21">
                    <mxGeometry x="-0.1101" relative="1" as="geometry">
                        <mxPoint as="offset"/>
                    </mxGeometry>
                </mxCell>
                <mxCell id="rmQM6Vja0yTJw_-H1t-c-23" value="" style="endArrow=classic;html=1;rounded=0;exitX=0;exitY=1;exitDx=0;exitDy=0;dashed=1;entryX=1.045;entryY=0.611;entryDx=0;entryDy=0;entryPerimeter=0;" edge="1" parent="1" source="rmQM6Vja0yTJw_-H1t-c-19" target="ifcn5dZgHCq0odgI6ynC-1">
                    <mxGeometry width="50" height="50" relative="1" as="geometry">
                        <mxPoint x="544.76" y="620" as="sourcePoint"/>
                        <mxPoint x="157.96000000000004" y="620.6000000000001" as="targetPoint"/>
                    </mxGeometry>
                </mxCell>
                <mxCell id="rmQM6Vja0yTJw_-H1t-c-25" value="" style="endArrow=classic;html=1;rounded=0;exitX=1.01;exitY=0.816;exitDx=0;exitDy=0;exitPerimeter=0;entryX=0;entryY=0;entryDx=0;entryDy=0;" edge="1" parent="1" source="ifcn5dZgHCq0odgI6ynC-1" target="ifcn5dZgHCq0odgI6ynC-27">
                    <mxGeometry width="50" height="50" relative="1" as="geometry">
                        <mxPoint x="369.9999999999999" y="921.0800000000002" as="sourcePoint"/>
                        <mxPoint x="553.42" y="920" as="targetPoint"/>
                    </mxGeometry>
                </mxCell>
                <mxCell id="rmQM6Vja0yTJw_-H1t-c-26" value="renderDetails()" style="edgeLabel;html=1;align=center;verticalAlign=middle;resizable=0;points=[];" connectable="0" vertex="1" parent="rmQM6Vja0yTJw_-H1t-c-25">
                    <mxGeometry x="-0.1101" relative="1" as="geometry">
                        <mxPoint as="offset"/>
                    </mxGeometry>
                </mxCell>
            </root>
        </mxGraphModel>
    </diagram>
</mxfile>